<svg width="251" height="53" viewBox="0 0 251 53" fill="none" xmlns="http://www.w3.org/2000/svg">
<path d="M159.359 28.1418C159.731 28.0129 160.068 27.7989 160.342 27.5167C160.616 27.2345 160.82 26.8921 160.939 26.5168C161.138 25.7402 161.225 24.9391 161.198 24.1378C161.194 23.0741 160.781 22.0528 160.042 21.2868C159.268 20.4654 158.253 19.9126 157.143 19.7088C156.046 19.5139 154.934 19.4272 153.82 19.4498H140.021V36.8348H154.178C155.781 36.8669 157.369 36.5285 158.82 35.8458C159.544 35.5029 160.154 34.9581 160.576 34.2769C160.998 33.5957 161.215 32.8071 161.2 32.0058C161.191 31.2369 161.064 30.4738 160.823 29.7438C160.73 29.3766 160.548 29.038 160.293 28.7585C160.038 28.4789 159.717 28.267 159.359 28.1418V28.1418ZM143.93 22.6528H154.154C156.321 22.6528 157.354 23.1238 157.354 23.9718V25.3378C157.354 26.1378 156.411 26.4918 154.503 26.4918H143.93V22.6528ZM157.381 32.2408C157.287 33.0408 156.108 33.4408 154.012 33.4408H143.906V29.8138H154.271C156.271 29.8138 157.334 30.1908 157.381 30.9678C157.423 31.1769 157.439 31.3907 157.428 31.6038C157.441 31.8176 157.426 32.0323 157.381 32.2418V32.2408Z" fill="white"/>
<path d="M177.546 20.6509C177.334 20.2861 177.026 19.9859 176.657 19.7826C176.287 19.5793 175.868 19.4805 175.446 19.4969C175.027 19.4912 174.612 19.5945 174.244 19.7967C173.876 19.999 173.567 20.2933 173.346 20.6509L162.021 36.9299H166.497L169.56 32.4539H181.36L184.517 36.9299H188.758L177.546 20.6509ZM171.746 29.0849L175.327 23.9259L178.954 29.0849H171.746Z" fill="white"/>
<path d="M184.666 19.4492V22.7242H192.346V36.8832H196.139V22.7242H203.889V19.4492H184.666Z" fill="white"/>
<path d="M223.886 20.1316C222.17 19.5683 220.366 19.321 218.562 19.4016H213.874C208.55 19.4016 205.864 21.0266 205.864 24.3016V31.9346C205.849 32.8134 206.119 33.6735 206.633 34.3867C207.146 35.0999 207.877 35.6281 208.715 35.8926C210.354 36.544 212.111 36.8504 213.874 36.7926H218.566C223.89 36.7926 226.576 35.1676 226.576 31.9396V24.3016C226.643 23.4083 226.417 22.5175 225.931 21.7647C225.446 21.0119 224.727 20.4384 223.886 20.1316ZM222.732 31.8876C222.732 32.9476 221.366 33.4656 218.562 33.5126H213.827C211.027 33.5126 209.657 32.9236 209.657 31.8876V24.4196C209.657 23.3126 211.023 22.7196 213.827 22.7196H218.566C221.366 22.7196 222.736 23.3086 222.736 24.4196L222.732 31.8876Z" fill="white"/>
<path d="M250.719 19.2852H246.926V31.5142L233.804 20.2982C233.172 19.6686 232.317 19.3133 231.425 19.3092C230.225 19.3092 229.587 20.0392 229.587 21.5232V36.9062H233.38V24.6322L246.714 36.0142C247.302 36.5689 248.073 36.889 248.881 36.9142C250.154 36.9142 250.766 36.1142 250.766 34.6052H250.719V19.2852Z" fill="white"/>
<path d="M70.0975 30.4539H74.5025C76.0778 30.5164 77.6473 30.2267 79.0965 29.6059C79.8281 29.338 80.4585 28.8497 80.9008 28.2083C81.343 27.5668 81.5753 26.8039 81.5655 26.0249V24.0459C81.5739 23.2171 81.3181 22.4072 80.8351 21.7336C80.3521 21.06 79.6671 20.5578 78.8795 20.2999C77.3255 19.6702 75.6546 19.381 73.9795 19.4519H60.4385V36.9319H64.2315V31.0899L74.7145 36.9319H81.6145L70.0975 30.4539ZM64.2315 22.7269H74.4085C76.6231 22.7269 77.7305 23.1509 77.7305 23.9989V26.0989C77.7305 26.8289 76.8305 27.2059 75.0925 27.2059H64.2315V22.7269Z" fill="white"/>
<path d="M126.448 20.3454C124.972 19.6993 123.371 19.3918 121.76 19.4454H107.531V36.8354H121.643C123.269 36.8691 124.878 36.5053 126.331 35.7754C127.077 35.4472 127.712 34.9099 128.16 34.2284C128.607 33.547 128.847 32.7505 128.851 31.9354V24.0904C128.89 23.2938 128.679 22.5049 128.249 21.8337C127.818 21.1624 127.189 20.6422 126.448 20.3454V20.3454ZM124.965 31.9354C124.965 32.5244 124.541 32.9254 123.646 33.2544C122.96 33.4307 122.254 33.5177 121.546 33.5134H111.277V22.7244H121.595C122.27 22.7265 122.942 22.8136 123.595 22.9834C124.49 23.2424 124.961 23.6194 124.961 24.0904L124.965 31.9354Z" fill="white"/>
<path d="M87.1536 20.3439C86.3912 20.6155 85.7322 21.1176 85.2679 21.7806C84.8036 22.4435 84.5571 23.2345 84.5626 24.0439V32.2659C84.571 33.0472 84.8104 33.8086 85.2507 34.4542C85.6909 35.0998 86.3123 35.6007 87.0366 35.8939C88.492 36.5561 90.0791 36.8782 91.6776 36.8359H103.834V33.5139H91.7706C89.5086 33.5139 88.3546 33.0429 88.3546 32.1479V29.8379H103.833V26.5139H88.3556V24.0429C88.3556 23.1429 89.6276 22.6769 92.1486 22.6769H103.905V19.4019H91.9356C90.2913 19.3554 88.6574 19.6773 87.1536 20.3439Z" fill="white"/>
<path d="M36.7657 10.5453L32.9467 2.48828C32.6503 2.94806 32.421 3.44775 32.2657 3.97228L28.6657 17.7543C28.4734 18.465 28.4817 19.215 28.6897 19.9213L29.9147 24.0673C29.9578 24.3029 30.0635 24.5225 30.2207 24.7033L36.7467 12.0033C36.8541 11.7758 36.9114 11.5279 36.9147 11.2763C36.918 11.0248 36.8671 10.7755 36.7657 10.5453V10.5453Z" fill="#E22526"/>
<path d="M39.2367 9.83807C39.5225 10.0055 39.8474 10.0948 40.1787 10.0971L49.1547 10.4741C49.4279 9.06429 49.2465 7.60416 48.6367 6.30407C47.6712 4.23667 46.0918 2.51723 44.1137 1.38007C42.2094 0.284864 40.0064 -0.17702 37.8227 0.0610705C36.3412 0.1489 34.9171 0.664378 33.7227 1.54507L38.5287 9.13107C38.6953 9.42726 38.9402 9.67187 39.2367 9.83807V9.83807Z" fill="#E22526"/>
<path d="M48.7296 11.6279L39.8486 12.3349C39.5971 12.3586 39.3542 12.4386 39.1379 12.5692C38.9217 12.6997 38.7377 12.8774 38.5996 13.0889L30.8496 25.0799C31.0847 25.135 31.3309 25.1187 31.5566 25.0329L35.7736 24.0199C36.488 23.8479 37.1405 23.481 37.6586 22.9599L47.7886 12.9479C48.1661 12.5571 48.4832 12.1122 48.7296 11.6279V11.6279Z" fill="#E22526"/>
<path d="M39.873 40.5145L48.754 41.2215C48.4978 40.7359 48.1813 40.2847 47.812 39.8785L37.682 29.8635C37.164 29.3424 36.5114 28.9754 35.797 28.8035L31.58 27.7905C31.3545 27.704 31.1081 27.6876 30.873 27.7435L38.624 39.7345C38.7593 39.9508 38.9421 40.1335 39.1585 40.2687C39.3749 40.4038 39.6193 40.4879 39.873 40.5145V40.5145Z" fill="#E22526"/>
<path d="M39.2601 43.0081C38.9753 43.1788 38.7335 43.4124 38.5531 43.6911L33.7471 51.2771C34.8287 52.2172 36.1827 52.7866 37.6111 52.9021C39.8821 53.1011 42.1596 52.5996 44.1371 51.4651C46.0434 50.3627 47.5463 48.6783 48.4251 46.6591C49.0884 45.3336 49.3504 43.8433 49.1791 42.3711L40.2031 42.7481C39.8714 42.7505 39.5461 42.8401 39.2601 43.0081Z" fill="#E22526"/>
<path d="M32.9468 50.3352L36.7658 42.2782C36.8669 42.0472 36.917 41.7972 36.9129 41.5451C36.9087 41.293 36.8504 41.0447 36.7418 40.8172L30.2158 28.1172C30.0586 28.2979 29.9529 28.5176 29.9098 28.7532L28.6848 32.8992C28.4768 33.6054 28.4685 34.3555 28.6608 35.0662L32.2608 48.8482C32.4188 49.3735 32.6497 49.874 32.9468 50.3352V50.3352Z" fill="#E22526"/>
<path d="M12.3795 28.2357L7.31445 35.5857C7.86017 35.605 8.40621 35.5577 8.94045 35.4447L22.6745 31.6757C23.3875 31.4912 24.0331 31.1072 24.5355 30.5687L27.5035 27.4357C27.6834 27.2754 27.8208 27.073 27.9035 26.8467L13.6505 27.5537C13.3988 27.5536 13.1509 27.6158 12.9292 27.7348C12.7074 27.8538 12.5185 28.0259 12.3795 28.2357V28.2357Z" fill="#E22526"/>
<path d="M10.5186 26.4499C10.5135 26.1115 10.4245 25.7795 10.2596 25.4839L6.11363 17.5449C4.75286 18.0109 3.57872 18.9035 2.76563 20.0899C1.46542 21.9565 0.767514 24.1762 0.765626 26.4509C0.764542 28.6455 1.46534 30.783 2.76563 32.5509C3.58083 33.7931 4.74441 34.767 6.11063 35.3509L10.2806 27.3879C10.441 27.1016 10.5231 26.7781 10.5186 26.4499V26.4499Z" fill="#E22526"/>
<path d="M7.31445 17.306L12.3795 24.656C12.5229 24.8636 12.7123 25.0354 12.9329 25.158C13.1535 25.2806 13.3994 25.3507 13.6515 25.363L27.9045 26.07C27.8306 25.8392 27.6917 25.6347 27.5045 25.481L24.5355 22.347C24.0293 21.8131 23.3851 21.43 22.6745 21.24L8.94045 17.47C8.40759 17.3466 7.86121 17.2915 7.31445 17.306V17.306Z" fill="#E22526"/>
</svg>
